<svg xmlns="http://www.w3.org/2000/svg" viewBox="0 0 512 512" role="img" aria-label="Coro Paz en Jesus">
  <rect width="512" height="512" rx="96" fill="#ffffff"/>
  <circle cx="256" cy="256" r="218" fill="#050505"/>
  <path d="M77 156a218 218 0 0 1 358 0c-66 20-118 58-154 117-37-54-91-93-204-117z" fill="#1c19ff"/>
  <path d="M92 165c66 75 156 42 184 145 17-82 79-120 145-132-33 52-71 85-118 99 38-18 75-30 118-20-52 27-83 58-150 69-48 8-86 7-143 16 34-27 68-37 99-36-15-80-79-72-135-141z" fill="#ffffff"/>
  <text x="256" y="143" text-anchor="middle" font-family="Arial, Helvetica, sans-serif" font-size="78" font-weight="800" fill="#ffffff">PAZ</text>
  <text x="256" y="435" text-anchor="middle" font-family="Arial, Helvetica, sans-serif" font-size="52" font-weight="800" fill="#ffffff">EN JESUS</text>
</svg>
